<svg xmlns="http://www.w3.org/2000/svg" xmlns:xlink="http://www.w3.org/1999/xlink" version="1.1" viewBox="0 0 100 100" preserveAspectRatio="xMidYMid meet">
  <defs>
    <style>
      .pixel { fill: #FFD700; }
      .pixel-dark { fill: #B8860B; }
    </style>
  </defs>
  <!-- Pixel art coin icon -->
  <rect x="20" y="20" width="10" height="10" class="pixel"/>
  <rect x="30" y="20" width="10" height="10" class="pixel"/>
  <rect x="40" y="20" width="10" height="10" class="pixel"/>
  <rect x="50" y="20" width="10" height="10" class="pixel"/>
  <rect x="60" y="20" width="10" height="10" class="pixel"/>
  <rect x="70" y="20" width="10" height="10" class="pixel"/>
  
  <rect x="15" y="30" width="10" height="10" class="pixel"/>
  <rect x="75" y="30" width="10" height="10" class="pixel"/>
  
  <rect x="10" y="40" width="10" height="10" class="pixel"/>
  <rect x="80" y="40" width="10" height="10" class="pixel"/>
  
  <rect x="10" y="50" width="10" height="10" class="pixel"/>
  <rect x="80" y="50" width="10" height="10" class="pixel"/>
  
  <rect x="15" y="60" width="10" height="10" class="pixel"/>
  <rect x="75" y="60" width="10" height="10" class="pixel"/>
  
  <rect x="20" y="70" width="10" height="10" class="pixel"/>
  <rect x="30" y="70" width="10" height="10" class="pixel"/>
  <rect x="40" y="70" width="10" height="10" class="pixel"/>
  <rect x="50" y="70" width="10" height="10" class="pixel"/>
  <rect x="60" y="70" width="10" height="10" class="pixel"/>
  <rect x="70" y="70" width="10" height="10" class="pixel"/>
  
  <!-- Inner details -->
  <rect x="35" y="35" width="30" height="30" class="pixel-dark"/>
</svg>
